<svg width="27" height="25" viewBox="0 0 27 25" fill="none" xmlns="http://www.w3.org/2000/svg">
<path d="M13.5 0C6.04385 0 0 5.13021 0 11.4583C0 14.246 1.17577 16.798 3.12553 18.7846C3.1649 18.8828 4.16528 21.4653 1.20275 24.0987C1.15086 24.1475 1.1095 24.2064 1.08124 24.2718C1.05298 24.3373 1.03842 24.4078 1.03846 24.4792C1.03846 24.6173 1.09317 24.7498 1.19054 24.8475C1.28792 24.9451 1.41998 25 1.55769 25C1.59521 25 1.63261 24.9959 1.66925 24.9878C4.65572 24.8103 7.21051 23.3237 8.77013 22.1781C10.2441 22.647 11.8331 22.9167 13.5 22.9167C20.9562 22.9167 27 17.7865 27 11.4583C27 5.13021 20.9562 0 13.5 0ZM13.5 4.6875C14.3598 4.6875 15.0577 5.3875 15.0577 6.25C15.0577 7.1125 14.3598 7.8125 13.5 7.8125C12.6402 7.8125 11.9423 7.1125 11.9423 6.25C11.9423 5.3875 12.6402 4.6875 13.5 4.6875ZM12.4615 10.4167H14.5385V17.7083H12.4615V10.4167Z" fill="#003554"/>
</svg>
