<svg width="29" height="27" viewBox="0 0 29 27" fill="none" xmlns="http://www.w3.org/2000/svg">
<path d="M14.5 0C14.1842 1.91624e-05 13.8809 0.115172 13.6551 0.320801L0.474365 10.3579C0.459142 10.3686 0.444191 10.3796 0.429525 10.3909L0.384684 10.426V10.4282C0.263492 10.5333 0.166806 10.6605 0.10063 10.8019C0.0344545 10.9433 0.000201882 11.0958 0 11.25C0 11.5484 0.127306 11.8345 0.353913 12.0455C0.580519 12.2565 0.887863 12.375 1.20833 12.375H2.41667V24.75C2.41667 25.9931 3.49813 27 4.83333 27H24.1667C25.5019 27 26.5833 25.9931 26.5833 24.75V12.375H27.7917C28.1121 12.375 28.4195 12.2565 28.6461 12.0455C28.8727 11.8345 29 11.5484 29 11.25C29.0001 11.0954 28.966 10.9425 28.8998 10.8007C28.8337 10.6589 28.7368 10.5314 28.6153 10.426L28.5964 10.4128C28.5699 10.3905 28.5424 10.3692 28.5138 10.3491L26.5833 8.87915V4.5C26.5833 3.879 26.042 3.375 25.375 3.375H24.1667C23.4997 3.375 22.9583 3.879 22.9583 4.5V6.11939L15.3189 0.301025C15.0963 0.108367 14.8039 0.000883502 14.5 0ZM18.125 14.625H22.9583V23.625H18.125V14.625Z" fill="#003554"/>
</svg>
