<svg width="50" height="47" viewBox="0 0 50 47" fill="none" xmlns="http://www.w3.org/2000/svg">
<path d="M25.1261 5.40724L32.3932 9.55424L36.0779 7.45775L25.1261 1.20508L6.83276 11.6507L10.4989 13.7472L25.1261 5.40724Z" fill="#003554"/>
<path d="M39.744 9.55432L25.1261 17.8943L17.859 13.7473L14.1836 15.8438L25.1261 22.0873L43.4288 11.6508L39.744 9.55432Z" fill="#003554"/>
<path d="M9.77308 23.5861L6.09766 21.4896V33.9766L24.391 44.4222V40.2293L9.77308 31.8801V23.5861Z" fill="#003554"/>
<path d="M6.09766 17.2965L20.7156 25.6365V33.9304L24.391 36.0361V23.54L6.09766 13.1035V17.2965Z" fill="#003554"/>
<path d="M36.8129 21.4896V17.2966L25.8611 23.5401V44.4222L29.5365 42.3257V25.6366L36.8129 21.4896Z" fill="#003554"/>
<path d="M40.4793 15.2V31.8799L33.2122 36.0361V40.2291L44.164 33.9764V13.1035L40.4793 15.2Z" fill="#003554"/>
</svg>
