<svg width="47" height="47" viewBox="0 0 47 47" fill="none" xmlns="http://www.w3.org/2000/svg">
<path d="M4.70006 10.9667C4.49246 10.9638 4.28635 11.0021 4.0937 11.0795C3.90105 11.157 3.7257 11.2719 3.57786 11.4177C3.43001 11.5634 3.31261 11.7371 3.23248 11.9287C3.15235 12.1202 3.11108 12.3258 3.11108 12.5334C3.11108 12.741 3.15235 12.9466 3.23248 13.1381C3.31261 13.3296 3.43001 13.5033 3.57786 13.6491C3.7257 13.7949 3.90105 13.9098 4.0937 13.9872C4.28635 14.0646 4.49246 14.103 4.70006 14.1H42.3001C42.5077 14.103 42.7138 14.0646 42.9064 13.9872C43.0991 13.9098 43.2744 13.7949 43.4223 13.6491C43.5701 13.5033 43.6875 13.3296 43.7676 13.1381C43.8478 12.9466 43.889 12.741 43.889 12.5334C43.889 12.3258 43.8478 12.1202 43.7676 11.9287C43.6875 11.7371 43.5701 11.5634 43.4223 11.4177C43.2744 11.2719 43.0991 11.157 42.9064 11.0795C42.7138 11.0021 42.5077 10.9638 42.3001 10.9667H4.70006ZM4.70006 21.9334C4.49246 21.9304 4.28635 21.9688 4.0937 22.0462C3.90105 22.1236 3.7257 22.2386 3.57786 22.3843C3.43001 22.5301 3.31261 22.7038 3.23248 22.8953C3.15235 23.0869 3.11108 23.2924 3.11108 23.5C3.11108 23.7077 3.15235 23.9132 3.23248 24.1048C3.31261 24.2963 3.43001 24.47 3.57786 24.6158C3.7257 24.7615 3.90105 24.8765 4.0937 24.9539C4.28635 25.0313 4.49246 25.0696 4.70006 25.0667H42.3001C42.5077 25.0696 42.7138 25.0313 42.9064 24.9539C43.0991 24.8765 43.2744 24.7615 43.4223 24.6158C43.5701 24.47 43.6875 24.2963 43.7676 24.1048C43.8478 23.9132 43.889 23.7077 43.889 23.5C43.889 23.2924 43.8478 23.0869 43.7676 22.8953C43.6875 22.7038 43.5701 22.5301 43.4223 22.3843C43.2744 22.2386 43.0991 22.1236 42.9064 22.0462C42.7138 21.9688 42.5077 21.9304 42.3001 21.9334H4.70006ZM4.70006 32.9C4.49246 32.8971 4.28635 32.9355 4.0937 33.0129C3.90105 33.0903 3.7257 33.2052 3.57786 33.351C3.43001 33.4968 3.31261 33.6705 3.23248 33.862C3.15235 34.0535 3.11108 34.2591 3.11108 34.4667C3.11108 34.6743 3.15235 34.8799 3.23248 35.0714C3.31261 35.263 3.43001 35.4367 3.57786 35.5824C3.7257 35.7282 3.90105 35.8431 4.0937 35.9205C4.28635 35.998 4.49246 36.0363 4.70006 36.0334H42.3001C42.5077 36.0363 42.7138 35.998 42.9064 35.9205C43.0991 35.8431 43.2744 35.7282 43.4223 35.5824C43.5701 35.4367 43.6875 35.263 43.7676 35.0714C43.8478 34.8799 43.889 34.6743 43.889 34.4667C43.889 34.2591 43.8478 34.0535 43.7676 33.862C43.6875 33.6705 43.5701 33.4968 43.4223 33.351C43.2744 33.2052 43.0991 33.0903 42.9064 33.0129C42.7138 32.9355 42.5077 32.8971 42.3001 32.9H4.70006Z" fill="black"/>
</svg>
