<svg width="24" height="28" viewBox="0 0 24 28" fill="none" xmlns="http://www.w3.org/2000/svg">
<path d="M3.2 0C1.43573 0 0 1.66007 0 3.7V23.4333C0 25.4733 1.43573 27.1333 3.2 27.1333H20.2667C22.0309 27.1333 23.4667 25.4733 23.4667 23.4333V3.7C23.4667 1.66007 22.0309 0 20.2667 0H3.2ZM3.2 2.46667H20.2667C20.8544 2.46667 21.3333 3.0192 21.3333 3.7V23.4333C21.3333 24.1141 20.8544 24.6667 20.2667 24.6667H18.1333H15.4255H12.8H3.2C2.61227 24.6667 2.13333 24.1141 2.13333 23.4333V3.7C2.13333 3.0192 2.61227 2.46667 3.2 2.46667ZM11.7333 6.16667C11.1675 6.16667 10.6249 6.42655 10.2248 6.88914C9.82476 7.35173 9.6 7.97913 9.6 8.63333C9.6 9.28753 9.82476 9.91494 10.2248 10.3775C10.6249 10.8401 11.1675 11.1 11.7333 11.1C12.2991 11.1 12.8417 10.8401 13.2418 10.3775C13.6419 9.91494 13.8667 9.28753 13.8667 8.63333C13.8667 7.97913 13.6419 7.35173 13.2418 6.88914C12.8417 6.42655 12.2991 6.16667 11.7333 6.16667ZM6.93333 8.63333C6.50899 8.63333 6.10202 8.82824 5.80196 9.17519C5.5019 9.52213 5.33333 9.99268 5.33333 10.4833C5.33333 10.974 5.5019 11.4445 5.80196 11.7915C6.10202 12.1384 6.50899 12.3333 6.93333 12.3333C7.35768 12.3333 7.76465 12.1384 8.0647 11.7915C8.36476 11.4445 8.53333 10.974 8.53333 10.4833C8.53333 9.99268 8.36476 9.52213 8.0647 9.17519C7.76465 8.82824 7.35768 8.63333 6.93333 8.63333ZM16.5333 8.63333C16.109 8.63333 15.702 8.82824 15.402 9.17519C15.1019 9.52213 14.9333 9.99268 14.9333 10.4833C14.9333 10.974 15.1019 11.4445 15.402 11.7915C15.702 12.1384 16.109 12.3333 16.5333 12.3333C16.9577 12.3333 17.3646 12.1384 17.6647 11.7915C17.9648 11.4445 18.1333 10.974 18.1333 10.4833C18.1333 9.99268 17.9648 9.52213 17.6647 9.17519C17.3646 8.82824 16.9577 8.63333 16.5333 8.63333ZM11.7333 12.3333C8.89493 12.3333 8 15.4167 8 15.4167C8 14.3733 8.53333 13.5667 8.53333 13.5667C8.21333 13.3373 7.39457 13.1813 7.00417 13.1813C5.7103 13.1825 4.26667 14.6466 4.26667 15.6431V18.5H19.2V15.6431C19.2 14.6466 17.5825 13.1813 16.4625 13.1813C16.0721 13.1813 15.2533 13.3373 14.9333 13.5667C14.9333 13.5667 15.4667 14.3733 15.4667 15.4167C15.4667 15.4167 14.5717 12.3333 11.7333 12.3333Z" fill="#003554"/>
</svg>
