<svg width="26" height="26" viewBox="0 0 26 26" fill="none" xmlns="http://www.w3.org/2000/svg">
<path d="M20.0909 0C19.1506 1.40118e-08 18.2488 0.373538 17.5839 1.03844C16.919 1.70334 16.5455 2.60514 16.5455 3.54545C16.5455 4.48577 16.919 5.38757 17.5839 6.05247C18.2488 6.71737 19.1506 7.09091 20.0909 7.09091C21.0312 7.09091 21.933 6.71737 22.5979 6.05247C23.2628 5.38757 23.6364 4.48577 23.6364 3.54545C23.6364 2.60514 23.2628 1.70334 22.5979 1.03844C21.933 0.373538 21.0312 1.40118e-08 20.0909 0ZM11.2273 1.18182C10.4437 1.18182 9.69218 1.4931 9.13809 2.04718C8.58401 2.60127 8.27273 3.35277 8.27273 4.13636C8.27273 4.91996 8.58401 5.67146 9.13809 6.22554C9.69218 6.77963 10.4437 7.09091 11.2273 7.09091C12.0109 7.09091 12.7624 6.77963 13.3165 6.22554C13.8705 5.67146 14.1818 4.91996 14.1818 4.13636C14.1818 3.35277 13.8705 2.60127 13.3165 2.04718C12.7624 1.4931 12.0109 1.18182 11.2273 1.18182ZM3.54545 2.36364C2.91858 2.36364 2.31738 2.61266 1.87411 3.05593C1.43084 3.4992 1.18182 4.1004 1.18182 4.72727C1.18182 5.35415 1.43084 5.95535 1.87411 6.39862C2.31738 6.84188 2.91858 7.09091 3.54545 7.09091C4.17233 7.09091 4.77353 6.84188 5.2168 6.39862C5.66007 5.95535 5.90909 5.35415 5.90909 4.72727C5.90909 4.1004 5.66007 3.4992 5.2168 3.05593C4.77353 2.61266 4.17233 2.36364 3.54545 2.36364ZM3.54545 9.45455C1.58718 9.45455 0 11.0417 0 13V20.0909C0 20.7433 0.529455 21.2727 1.18182 21.2727H5.90909V22.4545C5.90909 23.1069 6.43855 23.6364 7.09091 23.6364H14.1818V24.8182C14.1818 25.4705 14.7113 26 15.3636 26H24.8182C25.4705 26 26 25.4705 26 24.8182V16.5455C26 13.2825 23.3539 10.6364 20.0909 10.6364C18.47 10.6364 17.0038 11.2919 15.9361 12.3491C15.0524 10.6371 13.2864 9.45455 11.2273 9.45455C9.41187 9.45455 7.81278 10.3672 6.85316 11.7559C6.34811 10.4138 5.0642 9.45455 3.54545 9.45455Z" fill="#003554"/>
</svg>
